# xmcd CD database file
#
# Track frame offsets:
#	150
#	15737
#	34979
#	58264
#	75677
#	120502
#	137864
#	149589
#	167146
#	230253
#	258895
#	282485
#
# Disc length: 4126 seconds
#
# Revision: 0
# Processed by: cddbd v1.4PL0 Copyright (c) Steve Scherf et al.
# Submitted via: CDex 1.40Release
#
DISCID=ae101c0c
DTITLE=B.B.King and Bobby Bland - Together For The First Time... Live
DYEAR=1974
DGENRE=Blues
TTITLE0=3 O'Clock Blues
TTITLE1=It's My Own Fault
TTITLE2=Driftin' Blues
TTITLE3=That's The Way Love Is
TTITLE4=I'm Sorry
TTITLE5=I'll Take Care Of You
TTITLE6=Don't Cry No More
TTITLE7=Don't Want A Soul Hangin' Around
TTITLE8=Medley
TTITLE9=Everybody Wants To Know Why I Sing The Blues
TTITLE10=Goin' Down Slow
TTITLE11=I Like To Live The Love
EXTD=YEAR: 1974 ID3G: 0
EXTT0=
EXTT1=
EXTT2=
EXTT3=
EXTT4=
EXTT5=
EXTT6=
EXTT7=
EXTT8=
EXTT9=
EXTT10=
EXTT11=
PLAYORDER=
